# xmcd
#
# Track frame offsets:
# 150
# 13365
# 23995
# 42553
# 55265
# 73970
# 97523
# 117718
# 132588
# 163225
# 175520
# 206905
# 224175
# 255488
# 267593
# 302868
#
# Disc length: 4230 seconds
#
#
# Revision: 2
# Processed by: cddbd v1.5.2PL0 Copyright (c) Steve Scherf et al.
# Submitted via: FreeRIP 2.951 
#
DISCID=03108410
DTITLE=Christian Zacharias - Domenico Scarlatti Vol2
DYEAR=1994
DGENRE=Piano
TTITLE0=Sonate K22 c-moll - Allegro
TTITLE1=Sonate K11 d-moll
TTITLE2=Sonate K502 C-Dur - Allegro
TTITLE3=Sonate K146 G-Dur
TTITLE4=Sonate K141 d-moll - Allegro
TTITLE5=Sonate K532 a-moll - Allegro
TTITLE6=Sonate K268 A-Dur - Allegro
TTITLE7=Sonate K315 g-moll - Allegro
TTITLE8=Sonate K132 C-Dur - Cantabile
TTITLE9=Sonate K515 C-Dur - Allegro
TTITLE10=Sonate K213 d-moll - Andante
TTITLE11=Sonate K492 D-Dur - Presto
TTITLE12=Sonate K426 g-moll - Andante
TTITLE13=Sonate K427 G-Dur - Presto, quanto sia possibbile
TTITLE14=Sonate K109 a-moll - Adagio
TTITLE15=Sonate K537 A-Dur - Prestissimo
EXTD=
EXTT0=
EXTT1=
EXTT2=
EXTT3=
EXTT4=
EXTT5=
EXTT6=
EXTT7=
EXTT8=
EXTT9=
EXTT10=
EXTT11=
EXTT12=
EXTT13=
EXTT14=
EXTT15=
PLAYORDER=
